<svg id="Layer_1" data-name="Layer 1" xmlns="http://www.w3.org/2000/svg" viewBox="0 0 86.57 32.78"><defs><style>.cls-1{fill:#ffbc00;}.cls-2{fill:#152038;}</style></defs><title>logo_ale_yellow_color</title><polygon class="cls-1" points="11.96 20.53 17.72 19.96 15.79 17.05 14.77 15.55 12.99 18.66 11.96 20.53"/><path class="cls-1" d="M35.72,49.44l5.87-.55-5-7.3a2.43,2.43,0,0,0-2.23-1.05L26,41.33l-2,.19h0l-7.5.7v3.25l14.44-1.34a2.24,2.24,0,0,1,2.11,1Z" transform="translate(-16.5 -18.14)"/><path class="cls-1" d="M30.39,23.84L24.64,34.12A3.41,3.41,0,0,1,22,35.85l-5.48.51V39.8l7.2-.67a3.4,3.4,0,0,0,2.63-1.69l0.92-1.6L34.07,23.5Z" transform="translate(-16.5 -18.14)"/><path class="cls-1" d="M23.17,31.79l4.29-7.68-8.21.76a2.89,2.89,0,0,0-2.75,3V34l3.9-.36A3.55,3.55,0,0,0,23.17,31.79Z" transform="translate(-16.5 -18.14)"/><path class="cls-1" d="M31.64,47.87a2.55,2.55,0,0,0-2.4-1.19L16.5,47.87h0a3.27,3.27,0,0,0,3.41,3l12.87-1.2Z" transform="translate(-16.5 -18.14)"/><path class="cls-1" d="M38.28,29l3.84-6.25L37,23.22l-3.26,5.91a3.57,3.57,0,0,0,.15,3.7l0.62,0.94,9.82,14.46V41.13l-6-9.36A2.61,2.61,0,0,1,38.28,29Z" transform="translate(-16.5 -18.14)"/><path class="cls-1" d="M41.41,31.73l2.91,4.53V23.78l-2.94,4.79A3,3,0,0,0,41.41,31.73Z" transform="translate(-16.5 -18.14)"/><path class="cls-1" d="M18.93,20.71v2.81l23.45-2.4c0.31,0,.26-0.5-0.06-0.54L21.83,18.17A2.52,2.52,0,0,0,18.93,20.71Z" transform="translate(-16.5 -18.14)"/><path class="cls-2" d="M65,28.42H56.76v3.2a1,1,0,0,0,1,1H65a1.43,1.43,0,0,1,1.56,1.52v1H60.66a5.94,5.94,0,0,0-5.93,5.93v0.82a5.94,5.94,0,0,0,5.93,5.93h8.51A1.77,1.77,0,0,0,71,46.07V34.14C71,30.72,68.58,28.42,65,28.42ZM59.14,41a1.51,1.51,0,0,1,1.52-1.52h5.66l0.27,0v4.13H60.66A1.51,1.51,0,0,1,59.14,42V41Z" transform="translate(-16.5 -18.14)"/><path class="cls-2" d="M79.72,19.33H76.33V46.83a1,1,0,0,0,1,1h3.39V20.35A1,1,0,0,0,79.72,19.33Z" transform="translate(-16.5 -18.14)"/><path class="cls-2" d="M97.14,28.42H92.26a5.55,5.55,0,0,0-5.93,5.79v7.71a5.94,5.94,0,0,0,5.93,5.93h10V44.62a1,1,0,0,0-1-1h-9a1.51,1.51,0,0,1-1.52-1.52V40.38a2.48,2.48,0,0,0,.8.13h10a1.49,1.49,0,0,0,1.57-1.75V34.21A5.55,5.55,0,0,0,97.14,28.42Zm-6.4,5.75a1.38,1.38,0,0,1,1.52-1.52h5a1.27,1.27,0,0,1,1.49,1.52v2.11h-8V34.17Z" transform="translate(-16.5 -18.14)"/></svg>