<?xml version="1.0"?>
<svg xmlns="http://www.w3.org/2000/svg" viewBox="0 0 30 30" fill="#141f38" width="30px" height="30px">
    <path style="line-height:normal;text-indent:0;text-align:start;text-decoration-line:none;text-decoration-style:solid;text-decoration-color:#000;text-transform:none;block-progression:tb;isolation:auto;mix-blend-mode:normal" d="M 7 4 C 5.3550302 4 4 5.3550302 4 7 L 4 23 C 4 24.657 5.343 26 7 26 L 24 26 C 25.105 26 26 25.105 26 24 L 26 10 C 26 8.895 25.105 8 24 8 L 16 8 L 7 8 C 6.4349698 8 6 7.5650302 6 7 C 6 6.4349698 6.4349698 6 7 6 L 22 6 A 1.0001 1.0001 0 1 0 22 4 L 7 4 z M 22 15 C 23.105 15 24 15.895 24 17 C 24 18.105 23.105 19 22 19 C 20.895 19 20 18.105 20 17 C 20 15.895 20.895 15 22 15 z" font-weight="400" font-family="sans-serif" white-space="normal" overflow="visible" fill="#141f38"/>
</svg>
