<svg id="Слой_1" data-name="Слой 1" xmlns="http://www.w3.org/2000/svg" viewBox="0 0 64 64"><defs><style>.cls-1{fill:#fb0;}</style></defs><title>icon</title><g id="_Group_" data-name="&lt;Group&gt;"><path id="_Path_" data-name="&lt;Path&gt;" class="cls-1" d="M11.89,54A2.25,2.25,0,0,1,9.64,51.8a8.53,8.53,0,0,1,8.5-8.55H52.25a2.25,2.25,0,0,1,0,4.5H18.14a4,4,0,0,0-4,4A2.25,2.25,0,0,1,11.89,54Z"/></g><g id="_Group_2" data-name="&lt;Group&gt;"><path id="_Path_2" data-name="&lt;Path&gt;" class="cls-1" d="M52.25,59H18.14C13.3,59,9.5,55.44,9.5,50.9V13.1C9.5,8.56,13.3,5,18.14,5H52.25A2.25,2.25,0,0,1,54.5,7.25V45.5a2.25,2.25,0,0,1-4.5,0V9.5H18.14C16.08,9.5,14,10.74,14,13.1V50.9c0,2.37,2.08,3.6,4.14,3.6H52.25a2.25,2.25,0,0,1,0,4.5Z"/></g></svg>