<svg id="Слой_1" data-name="Слой 1" xmlns="http://www.w3.org/2000/svg" viewBox="0 0 64 64"><defs><style>.cls-1{fill:#fb0;}</style></defs><title>icon</title><g id="_Group_" data-name="&lt;Group&gt;"><path id="_Compound_Path_" data-name="&lt;Compound Path&gt;" class="cls-1" d="M60.43,51.24H3.57a2.57,2.57,0,0,1,0-5.13c2.69,0,5.57-1.29,5.57-4.91v-14c0-12,10.57-22.14,23.09-22.14S55.3,15.21,55.3,27.21v14c0,4.27,3.21,4.91,5.13,4.91a2.57,2.57,0,0,1,0,5.13ZM13.07,46.11H51.28a10.79,10.79,0,0,1-1.1-4.91v-14c0-9.22-8.22-17-18-17s-18,7.79-18,17v14A10.21,10.21,0,0,1,13.07,46.11Z"/></g><g id="_Group_2" data-name="&lt;Group&gt;"><path id="_Path_" data-name="&lt;Path&gt;" class="cls-1" d="M37.35,58.93H27.09a2.57,2.57,0,1,1,0-5.13H37.35a2.57,2.57,0,1,1,0,5.13Z"/></g></svg>