<?xml version="1.0" encoding="utf-8"?>
<!-- Generator: Adobe Illustrator 19.0.0, SVG Export Plug-In . SVG Version: 6.00 Build 0)  -->
<svg version="1.1" id="Слой_1" xmlns="http://www.w3.org/2000/svg" xmlns:xlink="http://www.w3.org/1999/xlink" x="0px" y="0px"
	 viewBox="-393.3 283 28.4 28.4" style="enable-background:new -393.3 283 28.4 28.4;" xml:space="preserve">
<style type="text/css">
	.st0{fill:#556B98;}
</style>
<title>icon</title>
<path class="st0" d="M-381.1,306.2c-0.5,0-1.1-0.2-1.4-0.6l-7-7c-0.8-0.8-0.8-2.1,0-2.9c0.8-0.8,2.1-0.8,2.9,0l7,7
	c0.8,0.7,0.9,2,0.1,2.8C-380,306-380.5,306.2-381.1,306.2L-381.1,306.2z"/>
<path class="st0" d="M-381.1,306.2c-1.1,0-2-0.8-2.1-1.9c0-0.6,0.2-1.2,0.6-1.6l10.8-10.8c0.8-0.8,2.1-0.8,2.9,0
	c0.8,0.8,0.8,2.1,0,2.9l-10.8,10.8C-380,306-380.6,306.2-381.1,306.2z"/>
</svg>
