<svg id="Слой_1" data-name="Слой 1" xmlns="http://www.w3.org/2000/svg" viewBox="0 0 44.05 49"><defs><style>.cls-1{fill:#fb0;}</style></defs><title>icon</title><g id="_Group_" data-name="&lt;Group&gt;"><path id="_Compound_Path_" data-name="&lt;Compound Path&gt;" class="cls-1" d="M41.82,49H2.23A2.23,2.23,0,0,1,0,46.77,17.09,17.09,0,0,1,17.08,29.7H27A17.09,17.09,0,0,1,44,46.77,2.23,2.23,0,0,1,41.82,49ZM4.65,44.55H39.4A12.64,12.64,0,0,0,27,34.15h-9.9A12.64,12.64,0,0,0,4.65,44.55Z"/></g><g id="_Group_2" data-name="&lt;Group&gt;"><path id="_Compound_Path_2" data-name="&lt;Compound Path&gt;" class="cls-1" d="M22,24.25A12.13,12.13,0,1,1,34.15,12.13,12.14,12.14,0,0,1,22,24.25Zm0-19.8a7.67,7.67,0,1,0,7.67,7.67A7.68,7.68,0,0,0,22,4.45Z"/></g></svg>