<svg id="Слой_1" data-name="Слой 1" xmlns="http://www.w3.org/2000/svg" viewBox="0 0 56 49"><defs><style>.cls-1{fill:#fb0;}</style></defs><title>icon</title><g id="_Group_" data-name="&lt;Group&gt;"><path id="_Path_" data-name="&lt;Path&gt;" class="cls-1" d="M2.39,4A2.25,2.25,0,0,0,.14,6.2a8.53,8.53,0,0,0,8.5,8.55H42.75a2.25,2.25,0,0,0,0-4.5H8.64a4,4,0,0,1-4-4A2.25,2.25,0,0,0,2.39,4Z"/></g><g id="_Group_2" data-name="&lt;Group&gt;"><path id="_Path_2" data-name="&lt;Path&gt;" class="cls-1" d="M50.61,10.8a2.25,2.25,0,0,0,2.25-2.25A8.53,8.53,0,0,0,44.36,0H10.25a2.25,2.25,0,0,0,0,4.5H44.36a4,4,0,0,1,4,4A2.25,2.25,0,0,0,50.61,10.8Z"/></g><path class="cls-1" d="M34.67,44.5h-26c-2.06,0-4.14-1.24-4.14-3.6V8.1c0-2.37,2.08-3.6,4.14-3.6H42.75a2.25,2.25,0,0,0,0-4.5H8.64C3.8,0,0,3.56,0,8.1V40.9C0,45.44,3.8,49,8.64,49H35.06A23,23,0,0,1,34.67,44.5Z"/><path class="cls-1" d="M33.91,29.41a2.25,2.25,0,0,0-2.25-2.25H25.74c-.06.12-.11.24-.18.36a18.58,18.58,0,0,1-3,4.14h9.07A2.25,2.25,0,0,0,33.91,29.41Z"/><path class="cls-1" d="M17.09,29.41a2.25,2.25,0,0,0,2.25,2.25h5.92c.06-.12.11-.24.18-.36a18.58,18.58,0,0,1,3-4.14H19.34A2.25,2.25,0,0,0,17.09,29.41Z"/><path class="cls-1" d="M25.5,21a2.25,2.25,0,0,0-2.25,2.25v5.92l.36.18a18.58,18.58,0,0,1,4.14,3V23.25A2.25,2.25,0,0,0,25.5,21Z"/><path class="cls-1" d="M25.5,37.82a2.25,2.25,0,0,0,2.25-2.25V29.65l-.36-.18a18.58,18.58,0,0,1-4.14-3v9.07A2.25,2.25,0,0,0,25.5,37.82Z"/><circle class="cls-1" cx="43" cy="29" r="3"/><path class="cls-1" d="M56,18a8.53,8.53,0,0,0-8.46-7.75H13.39a2.25,2.25,0,0,0,0,4.5H47.5a4,4,0,0,1,4,4V40.45a4,4,0,0,1-4,4H13.39a2.25,2.25,0,0,0,0,4.5H47.5A8.53,8.53,0,0,0,56,41h0V18Z"/></svg>