<svg id="Слой_1" data-name="Слой 1" xmlns="http://www.w3.org/2000/svg" viewBox="0 0 24.05 32.21"><defs><style>.cls-1{fill:#fff;}</style></defs><title>icon</title><g id="_Group_" data-name="&lt;Group&gt;"><path id="_Path_" data-name="&lt;Path&gt;" class="cls-1" d="M12,32.21a2,2,0,0,1-1.44-.6l-10-10a2,2,0,0,1,2.89-2.89L12,27.28l8.54-8.54a2,2,0,0,1,2.89,2.89l-10,10A2,2,0,0,1,12,32.21Z"/></g><g id="_Group_2" data-name="&lt;Group&gt;"><path id="_Path_2" data-name="&lt;Path&gt;" class="cls-1" d="M12,28.58a2,2,0,0,1-2-2V2a2,2,0,1,1,4.08,0v24.5A2,2,0,0,1,12,28.58Z"/></g></svg>