<svg id="Слой_1" data-name="Слой 1" xmlns="http://www.w3.org/2000/svg" viewBox="0 0 54 54"><defs><style>.cls-1{fill:#abb8c6;}</style></defs><title>icon</title><g id="_Group_" data-name="&lt;Group&gt;"><path id="_Path_" data-name="&lt;Path&gt;" class="cls-1" d="M38.4,54H8.64A8.67,8.67,0,0,1,0,45.33V15.58c0-4.93,4-9.1,8.64-9.1h13a2.16,2.16,0,0,1,0,4.32h-13c-2.26,0-4.32,2.28-4.32,4.78V45.33a4.34,4.34,0,0,0,4.32,4.35H38.4c2.51,0,4.8-2.07,4.8-4.35V34.56a2.16,2.16,0,0,1,4.32,0V45.33C47.52,49.95,43.26,54,38.4,54Z"/></g><g id="_Group_2" data-name="&lt;Group&gt;"><path id="_Compound_Path_" data-name="&lt;Compound Path&gt;" class="cls-1" d="M24.59,41H15.12A2.16,2.16,0,0,1,13,38.88V30.24a2.17,2.17,0,0,1,.63-1.53L37.31,5a2.16,2.16,0,0,1,3,0L49.82,14a2.16,2.16,0,0,1,0,3.1L26.1,40.42A2.16,2.16,0,0,1,24.59,41Zm-7.31-4.32h6.43L45.22,15.6,38.87,9.53,17.28,31.13Z"/></g><g id="_Group_3" data-name="&lt;Group&gt;"><path id="_Path_2" data-name="&lt;Path&gt;" class="cls-1" d="M51.84,13.81a2.15,2.15,0,0,1-1.51-.62L40.62,3.7a2.16,2.16,0,0,1,3-3.09l9.71,9.49a2.16,2.16,0,0,1-1.51,3.7Z"/></g></svg>