<?xml version="1.0" encoding="utf-8"?>
<!-- Generator: Adobe Illustrator 19.0.0, SVG Export Plug-In . SVG Version: 6.00 Build 0)  -->
<svg version="1.1" id="Слой_1" xmlns="http://www.w3.org/2000/svg" xmlns:xlink="http://www.w3.org/1999/xlink" x="0px" y="0px"
	 viewBox="-398 279.4 43.8 37.9" style="enable-background:new -398 279.4 43.8 37.9;" xml:space="preserve">
<style type="text/css">
	.st0{fill:#FFFFFF;}
</style>
<path class="st0" d="M-356.4,279.4h-2.6h-0.6h-10.8h-5.5h-0.4h-5.5h-10.5h-1.3h-2.2c-0.1,0-0.2,0-0.3,0c-1.2,0.2-2.1,1.3-1.9,2.5
	l1,8l0.9,7.2l0.3,2.1l0.7,5.6l0.5,3.9c0,1.4,0.4,2.7,1,3.9c0.7,1.3,1.8,2.5,3,3.3c1.3,0.8,2.9,1.3,4.6,1.3h4.2h5.4h0.4h5.5h4.2
	c1.7,0,3.3-0.5,4.6-1.3c1.3-0.8,2.3-1.9,3-3.3c0.6-1.2,1-2.5,1-3.9l0.5-3.9l0.7-5.6l0.3-2.2l0.9-7.2l1-8c0-0.1,0-0.2,0-0.3
	C-354.2,280.4-355.2,279.4-356.4,279.4z M-364.7,283.8l-3.6,3.5l-3.6-3.5H-364.7z M-376.1,310.8l-4.7-4.6l4.7-4.7l4.6,4.6
	L-376.1,310.8z M-376.1,285.9l4.7,4.7l-4.6,4.6l-4.7-4.7L-376.1,285.9z M-379.2,298.3l-4.7,4.7l-4.7-4.7l4.7-4.7L-379.2,298.3z
	 M-372.9,298.3l4.6-4.6l4.7,4.6l-4.6,4.6L-372.9,298.3z M-380.4,283.8l-3.5,3.5l-3.5-3.5H-380.4z M-393.2,284.4l6.1,6.1l-4.7,4.7
	l-0.1-0.1L-393.2,284.4z M-390.2,308.6c0-0.1,0-0.2,0-0.3l-0.8-6.1l3.9,3.9l-3,3C-390.1,309-390.2,308.8-390.2,308.6z M-386,312.8
	c-0.5,0-0.9-0.1-1.3-0.2l3.3-3.3l3.6,3.6H-386z M-366.2,312.8h-5.6l3.6-3.6l3.4,3.4C-365.3,312.8-365.8,312.9-366.2,312.8z
	 M-365.1,306.1l3.9-3.9l-0.8,6.2c0,0.1,0,0.2,0,0.2c0,0,0,0,0,0.1c0,0.2,0,0.3-0.1,0.5L-365.1,306.1z M-360.5,295.2l-4.7-4.6
	l6.1-6.1l-1.3,10.6L-360.5,295.2z"/>
</svg>
