<svg id="Слой_1" data-name="Слой 1" xmlns="http://www.w3.org/2000/svg" viewBox="0 0 55 55"><defs><style>.cls-1{fill:#141f38;}</style></defs><title>icon</title><g id="_Group_" data-name="&lt;Group&gt;"><g id="_Group_2" data-name="&lt;Group&gt;"><path id="_Path_" data-name="&lt;Path&gt;" class="cls-1" d="M28,39.15a2.8,2.8,0,0,1-2.8-2.8V19.58a2.8,2.8,0,0,1,5.59,0V36.36A2.8,2.8,0,0,1,28,39.15Z"/></g><g id="_Group_3" data-name="&lt;Group&gt;"><path id="_Path_2" data-name="&lt;Path&gt;" class="cls-1" d="M36.36,30.76H19.58a2.8,2.8,0,0,1,0-5.59H36.36a2.8,2.8,0,0,1,0,5.59Z"/></g></g><g id="_Group_4" data-name="&lt;Group&gt;"><path id="_Compound_Path_" data-name="&lt;Compound Path&gt;" class="cls-1" d="M27.5,55A27.5,27.5,0,1,1,55,27.5,27.53,27.53,0,0,1,27.5,55Zm0-49.41A21.91,21.91,0,1,0,49.41,27.5,21.93,21.93,0,0,0,27.5,5.59Z"/></g></svg>