<svg id="Слой_1" data-name="Слой 1" xmlns="http://www.w3.org/2000/svg" viewBox="0 0 221 221"><defs><style>.cls-1{fill:#abb8c6;}</style></defs><title>icon</title><path class="cls-1" d="M103.66,178.94a6.84,6.84,0,1,1-6.85,6.84,6.85,6.85,0,0,1,6.85-6.84ZM96.81,131a6.85,6.85,0,0,1,13.69,0V158.4a6.85,6.85,0,1,1-13.69,0V131Zm95.81,89H28.37A27.38,27.38,0,0,1,1,192.62V131a6.85,6.85,0,0,1,13.69,0V189.2a17.1,17.1,0,0,0,17.11,17.1H189.2a17.11,17.11,0,0,0,17.12-17.1V127.6a17.12,17.12,0,0,0-17.12-17.11H62.59A20.52,20.52,0,0,1,42.06,90V69.43a68.44,68.44,0,0,1,136.87,0v6.84a6.84,6.84,0,0,1-13.69,0V69.43a54.75,54.75,0,1,0-109.5,0V86.54A10.27,10.27,0,0,0,66,96.81H192.62A27.37,27.37,0,0,1,220,124.19v68.44A27.38,27.38,0,0,1,192.62,220ZM21.53,110.49a6.84,6.84,0,1,1,6.84-6.84,6.84,6.84,0,0,1-6.84,6.84Z"/></svg>