<svg id="Слой_1" data-name="Слой 1" xmlns="http://www.w3.org/2000/svg" viewBox="0 0 49 44.92"><defs><style>.cls-1{fill:#fff;}</style></defs><title>icon</title><g id="_Group_" data-name="&lt;Group&gt;"><path id="_Path_" data-name="&lt;Path&gt;" class="cls-1" d="M42,44.92H7a7.24,7.24,0,0,1-7-7.26v-7a2,2,0,1,1,4.08,0v7A3.15,3.15,0,0,0,7,40.83H42a3.15,3.15,0,0,0,2.95-3.18v-7a2,2,0,1,1,4.08,0v7A7.24,7.24,0,0,1,42,44.92Z"/></g><g id="_Group_2" data-name="&lt;Group&gt;"><path id="_Path_2" data-name="&lt;Path&gt;" class="cls-1" d="M24.5,0a2,2,0,0,0-1.44.6l-10,10A2,2,0,1,0,16,13.47L24.5,4.93,33,13.47a2,2,0,1,0,2.89-2.89l-10-10A2,2,0,0,0,24.5,0Z"/></g><g id="_Group_3" data-name="&lt;Group&gt;"><path id="_Path_3" data-name="&lt;Path&gt;" class="cls-1" d="M24.5,3.63a2,2,0,0,0-2,2v24.5a2,2,0,0,0,4.08,0V5.67A2,2,0,0,0,24.5,3.63Z"/></g></svg>