<svg id="Слой_1" data-name="Слой 1" xmlns="http://www.w3.org/2000/svg" viewBox="0 0 49 44.92"><defs><style>.cls-1{fill:#141f38;}</style></defs><title>icon</title><g id="_Group_" data-name="&lt;Group&gt;"><path id="_Path_" data-name="&lt;Path&gt;" class="cls-1" d="M42,44.92H7a7.24,7.24,0,0,1-7-7.26v-7a2,2,0,1,1,4.08,0v7A3.15,3.15,0,0,0,7,40.83H42a3.15,3.15,0,0,0,2.95-3.18v-7a2,2,0,1,1,4.08,0v7A7.24,7.24,0,0,1,42,44.92Z"/></g><g id="_Group_2" data-name="&lt;Group&gt;"><path id="_Path_2" data-name="&lt;Path&gt;" class="cls-1" d="M24.5,32.21a2,2,0,0,1-1.44-.6l-10-10A2,2,0,0,1,16,18.75l8.54,8.54L33,18.75a2,2,0,0,1,2.89,2.89l-10,10A2,2,0,0,1,24.5,32.21Z"/></g><g id="_Group_3" data-name="&lt;Group&gt;"><path id="_Path_3" data-name="&lt;Path&gt;" class="cls-1" d="M24.5,28.58a2,2,0,0,1-2-2V2a2,2,0,0,1,4.08,0v24.5A2,2,0,0,1,24.5,28.58Z"/></g></svg>