<svg id="Слой_1" data-name="Слой 1" xmlns="http://www.w3.org/2000/svg" viewBox="0 0 62 57.98"><defs><style>.cls-1{fill:#152038;}</style></defs><title>icon</title><path class="cls-1" d="M39.21,46.16a.84.84,0,0,0-1.19,0l-5.18,5.18V26.92a.84.84,0,0,0-.84-.84H30a.84.84,0,0,0-.84.84V51.34L24,46.16a.84.84,0,0,0-1.19,0l-1.42,1.42a.84.84,0,0,0-.25.6.83.83,0,0,0,.25.59l9.09,9a.84.84,0,0,0,1.18,0l9-9a.84.84,0,0,0,0-1.19Z"/><path class="cls-1" d="M61.11,23.36a10.27,10.27,0,0,0-2.55-3.76,12.5,12.5,0,0,0-3.8-2.6A11.26,11.26,0,0,0,51,16.08,16.19,16.19,0,0,0,49.72,10a15.39,15.39,0,0,0-3.54-5.16A16.91,16.91,0,0,0,41,1.3,16.41,16.41,0,0,0,29.87.68a17.82,17.82,0,0,0-4.23,1.93,17.41,17.41,0,0,0-3.35,2.92,15.78,15.78,0,0,0-2.14,3.1c-.37-.13-.76-.24-1.16-.35a9,9,0,0,0-5.21.26,8.09,8.09,0,0,0-2.63,1.58A9.55,9.55,0,0,0,9.2,12.52,8.78,8.78,0,0,0,8.25,15a12.93,12.93,0,0,0-3.07,1.66,13.21,13.21,0,0,0-2.79,2.74A13.62,13.62,0,0,0,.63,22.94,13.16,13.16,0,0,0,1,32a13,13,0,0,0,2.75,4.07,11.65,11.65,0,0,0,4.07,2.8,12.89,12.89,0,0,0,5,1H26a.84.84,0,0,0,.84-.84v-2a.84.84,0,0,0-.84-.84H12.88a8.7,8.7,0,0,1-3.61-.75,9.61,9.61,0,0,1-2.88-2,9.15,9.15,0,0,1-2.71-6.61,9.56,9.56,0,0,1,.44-2.82,7.49,7.49,0,0,1,1.32-2.51,7.84,7.84,0,0,1,1.87-2,8.24,8.24,0,0,1,2.58-1.31l1.18-.47a.84.84,0,0,0,.51-.61l.25-1.25a4.35,4.35,0,0,1,.55-1.69,4,4,0,0,1,1.17-1.31A4.89,4.89,0,0,1,15.11,12a6.13,6.13,0,0,1,3.06-.2,3,3,0,0,1,1.06.4l1.89.94a.82.82,0,0,0,.66,0,.83.83,0,0,0,.48-.45l.82-1.87a11.58,11.58,0,0,1,4.79-5.21A10.61,10.61,0,0,1,31,4.18a13.12,13.12,0,0,1,8.58.5,11.83,11.83,0,0,1,4,2.79,11.74,11.74,0,0,1,2.75,4,12.71,12.71,0,0,1,1,5.1v.3l-.12,2a.84.84,0,0,0,.84.89h2.12a8.08,8.08,0,0,1,3.21.64A7.35,7.35,0,0,1,56,22.2,8.2,8.2,0,0,1,58.31,28,8.2,8.2,0,0,1,56,33.76a9,9,0,0,1-2.59,1.78,7.49,7.49,0,0,1-3.19.69H36a.84.84,0,0,0-.84.84v2a.84.84,0,0,0,.84.84H50.18a11.29,11.29,0,0,0,4.59-1,12.46,12.46,0,0,0,3.8-2.59,11.63,11.63,0,0,0,2.54-3.82A12,12,0,0,0,62,28,12.42,12.42,0,0,0,61.11,23.36Z"/></svg>