<svg xmlns="http://www.w3.org/2000/svg" viewBox="0 0 52.47 53"><defs><style>.cls-1{fill:#091529;}</style></defs><title>icon</title><g id="Слой_7" data-name="Слой 7"><path class="cls-1" d="M25,0h0a5.79,5.79,0,0,0-5.31,3.47L.32,47.76A3.74,3.74,0,0,0,3.75,53h0A5.68,5.68,0,0,0,9,49.55l3.46-8.11a1.87,1.87,0,0,1,1.72-1.14h22.4a1.87,1.87,0,0,1,1.73,1.15l4.37,10.41A1.87,1.87,0,0,0,44.38,53h0a5.58,5.58,0,0,0,5.11-7.81l-2.16-5h1.78a4.61,4.61,0,0,0,2.38-1.06,3.36,3.36,0,0,0,1-2.22,4.61,4.61,0,0,0-4.89-4.89H45a1.87,1.87,0,0,1-1.72-1.12L31.66,4.38A7.3,7.3,0,0,0,25,0ZM27,15l6.22,14.39a1.87,1.87,0,0,1-1.72,2.62H19.16a1.87,1.87,0,0,1-1.72-2.61L23.6,15.05A1.87,1.87,0,0,1,27,15Z"/></g></svg>