<?xml version="1.0" encoding="UTF-8"?>
<svg xmlns="http://www.w3.org/2000/svg" xmlns:xlink="http://www.w3.org/1999/xlink" viewBox="0 0 50 50" version="1.1" fill="#ffffff" width="50px" height="50px">
<g id="surface1" fill="#ffffff">
<path style=" " d="M 25 1.21875 C 17.832031 1.21875 12 7.050781 12 14.21875 L 12 20 L 8 20 C 6.355469 20 5 21.355469 5 23 L 5 47 C 5 48.644531 6.355469 50 8 50 L 42 50 C 43.644531 50 45 48.644531 45 47 L 45 23 C 45 21.355469 43.644531 20 42 20 L 38 20 L 38 14.21875 C 38 7.050781 32.167969 1.21875 25 1.21875 Z M 25 3.21875 C 31.089844 3.21875 36 8.128906 36 14.21875 L 36 20 L 14 20 L 14 14.21875 C 14 8.128906 18.910156 3.21875 25 3.21875 Z M 8 22 L 42 22 C 42.5625 22 43 22.4375 43 23 L 43 47 C 43 47.5625 42.5625 48 42 48 L 8 48 C 7.4375 48 7 47.5625 7 47 L 7 23 C 7 22.4375 7.4375 22 8 22 Z M 13 33 C 11.894531 33 11 33.894531 11 35 C 11 36.105469 11.894531 37 13 37 C 14.105469 37 15 36.105469 15 35 C 15 33.894531 14.105469 33 13 33 Z M 21 33 C 19.894531 33 19 33.894531 19 35 C 19 36.105469 19.894531 37 21 37 C 22.105469 37 23 36.105469 23 35 C 23 33.894531 22.105469 33 21 33 Z M 29 33 C 27.894531 33 27 33.894531 27 35 C 27 36.105469 27.894531 37 29 37 C 30.105469 37 31 36.105469 31 35 C 31 33.894531 30.105469 33 29 33 Z M 37 33 C 35.894531 33 35 33.894531 35 35 C 35 36.105469 35.894531 37 37 37 C 38.105469 37 39 36.105469 39 35 C 39 33.894531 38.105469 33 37 33 Z " fill="#ffffff"/>
</g>
</svg>
