<?xml version="1.0" encoding="UTF-8"?>
<svg xmlns="http://www.w3.org/2000/svg" xmlns:xlink="http://www.w3.org/1999/xlink" viewBox="0 0 50 50" version="1.1" fill="#ffbb00" width="50px" height="50px">
<g id="surface1" fill="#ffbb00">
<path style=" " d="M 3 7 L 3 9.609375 C 5.652344 11.914063 20.863281 25.15625 22.066406 26.203125 C 23.304688 27.28125 24.53125 27.402344 25 27.402344 C 25.46875 27.402344 26.695313 27.28125 27.933594 26.203125 C 29.179688 25.117188 45.28125 11.109375 47 9.609375 L 47 7 Z M 3 11.9375 L 3 34.019531 L 16.300781 23.519531 C 11.988281 19.765625 5.84375 14.414063 3 11.9375 Z M 47 11.941406 C 44.578125 14.050781 32.347656 24.699219 32.347656 24.699219 C 30.644531 26.179688 29.402344 27.257813 29.089844 27.53125 C 27.402344 29 25.667969 29.160156 25 29.160156 C 24.332031 29.160156 22.597656 29 20.910156 27.53125 C 20.601563 27.261719 19.359375 26.183594 17.652344 24.695313 L 3 36.265625 L 3 39 L 28 39 L 28 35 L 38.757813 35 L 36.878906 33.121094 C 36.3125 32.554688 36 31.800781 36 31 C 36 30.199219 36.3125 29.445313 36.878906 28.878906 C 37.445313 28.3125 38.199219 28 39 28 C 39.800781 28 40.554688 28.3125 41.121094 28.878906 L 47 34.757813 Z M 38.988281 29.988281 C 38.582031 29.992188 38.21875 30.238281 38.0625 30.613281 C 37.910156 30.992188 38 31.421875 38.292969 31.707031 L 43.585938 37 L 30 37 L 30 39 L 43.585938 39 L 38.292969 44.292969 C 38.03125 44.542969 37.925781 44.917969 38.019531 45.265625 C 38.109375 45.617188 38.382813 45.890625 38.734375 45.980469 C 39.082031 46.074219 39.457031 45.96875 39.707031 45.707031 L 47.414063 38 L 39.707031 30.292969 C 39.519531 30.097656 39.261719 29.992188 38.988281 29.988281 Z " fill="#ffbb00"/>
</g>
</svg>
