<svg id="Слой_1" data-name="Слой 1" xmlns="http://www.w3.org/2000/svg" viewBox="0 0 64 64"><defs><style>.cls-1{fill:#fb0;}</style></defs><title>icon</title><g id="_Group_" data-name="&lt;Group&gt;"><path id="_Path_" data-name="&lt;Path&gt;" class="cls-1" d="M6.39,11.45A2.25,2.25,0,0,0,4.14,13.7a8.53,8.53,0,0,0,8.5,8.55H46.75a2.25,2.25,0,0,0,0-4.5H12.64a4,4,0,0,1-4-4A2.25,2.25,0,0,0,6.39,11.45Z"/></g><g id="_Group_2" data-name="&lt;Group&gt;"><path id="_Path_2" data-name="&lt;Path&gt;" class="cls-1" d="M54.61,18.3A2.25,2.25,0,0,0,56.86,16a8.53,8.53,0,0,0-8.5-8.55H14.25a2.25,2.25,0,0,0,0,4.5H48.36a4,4,0,0,1,4,4A2.25,2.25,0,0,0,54.61,18.3Z"/></g><path class="cls-1" d="M38.67,52h-26c-2.06,0-4.14-1.24-4.14-3.6V15.6c0-2.37,2.08-3.6,4.14-3.6H46.75a2.25,2.25,0,0,0,0-4.5H12.64C7.8,7.5,4,11.06,4,15.6V48.4c0,4.55,3.8,8.1,8.64,8.1H39.06A23,23,0,0,1,38.67,52Z"/><circle class="cls-1" cx="47" cy="36.5" r="3"/><path class="cls-1" d="M60,25.5a8.53,8.53,0,0,0-8.46-7.75H17.39a2.25,2.25,0,0,0,0,4.5H51.5a4,4,0,0,1,4,4V48a4,4,0,0,1-4,4H17.39a2.25,2.25,0,0,0,0,4.5H51.5a8.53,8.53,0,0,0,8.47-8h0v-23Z"/></svg>