<svg xmlns="http://www.w3.org/2000/svg" viewBox="0 0 64 64"><defs><style>.cls-1{fill:#141f38;}</style></defs><title>icon</title><g id="Слой_7" data-name="Слой 7"><g id="_Group_" data-name="&lt;Group&gt;"><path id="_Compound_Path_" data-name="&lt;Compound Path&gt;" class="cls-1" d="M32.17,41.72a9.55,9.55,0,1,1,9.55-9.55A9.56,9.56,0,0,1,32.17,41.72Zm0-15a5.47,5.47,0,1,0,5.47,5.47A5.48,5.48,0,0,0,32.17,26.7Z"/></g><g id="_Group_2" data-name="&lt;Group&gt;"><path id="_Compound_Path_2" data-name="&lt;Compound Path&gt;" class="cls-1" d="M34,58.5H30a4.08,4.08,0,0,1-4.08-4.08V50.17a.82.82,0,0,0-.57-.7,1,1,0,0,0-1.09.13l-2.86,2.53A4.84,4.84,0,0,1,14.59,52l-2.67-2.71a5,5,0,0,1,0-6.94l2.41-2.56a1,1,0,0,0,.18-1.14.81.81,0,0,0-.69-.56H9.58A4.08,4.08,0,0,1,5.5,34V30a4.08,4.08,0,0,1,4.08-4.08h4.25a.82.82,0,0,0,.7-.57,1,1,0,0,0-.13-1.09l-2.53-2.86A4.84,4.84,0,0,1,12,14.59l2.71-2.67a5.09,5.09,0,0,1,6.94,0l2.56,2.41a1,1,0,0,0,1.14.18.81.81,0,0,0,.56-.69V9.58A4.08,4.08,0,0,1,30,5.5H34a4.08,4.08,0,0,1,4.08,4.08v4.25a.82.82,0,0,0,.57.7,1,1,0,0,0,1.09-.13l2.86-2.53a4.83,4.83,0,0,1,6.78.11l2.67,2.71a5,5,0,0,1,0,6.94l-2.41,2.56a1,1,0,0,0-.18,1.14.81.81,0,0,0,.69.56h4.25A4.08,4.08,0,0,1,58.5,30V34a4.08,4.08,0,0,1-4.08,4.08H50.17a.82.82,0,0,0-.7.57,1,1,0,0,0,.13,1.09l2.53,2.86A4.84,4.84,0,0,1,52,49.41l-2.71,2.67a5.09,5.09,0,0,1-6.94,0l-2.56-2.41a1,1,0,0,0-1.14-.18.81.81,0,0,0-.56.69v4.25A4.08,4.08,0,0,1,34,58.5ZM24.82,45.29a5.38,5.38,0,0,1,2.06.41A4.81,4.81,0,0,1,30,50.17v4.25H34V50.17a4.8,4.8,0,0,1,3.08-4.46,5.06,5.06,0,0,1,5.54,1l2.56,2.41a.88.88,0,0,0,1.23,0l2.71-2.67a.78.78,0,0,0,0-1.1l-2.53-2.86a5,5,0,0,1-.93-5.44A4.81,4.81,0,0,1,50.17,34h4.25V30H50.17a4.8,4.8,0,0,1-4.46-3.08,5.05,5.05,0,0,1,1-5.53l2.41-2.56a.88.88,0,0,0,.27-.64.84.84,0,0,0-.23-.59l-2.67-2.71a.78.78,0,0,0-1.1,0l-2.86,2.53a5,5,0,0,1-5.44.93A4.81,4.81,0,0,1,34,13.83V9.58H30v4.25a4.8,4.8,0,0,1-3.08,4.46,5.05,5.05,0,0,1-5.54-1l-2.56-2.41a.88.88,0,0,0-1.23,0l-2.71,2.67a.78.78,0,0,0,0,1.1l2.53,2.86a5,5,0,0,1,.93,5.44A4.81,4.81,0,0,1,13.83,30H9.58V34h4.25a4.8,4.8,0,0,1,4.46,3.08,5.05,5.05,0,0,1-1,5.53l-2.41,2.56a.88.88,0,0,0-.27.64.84.84,0,0,0,.23.59l2.67,2.71a.78.78,0,0,0,1.1,0l2.86-2.53A4.76,4.76,0,0,1,24.82,45.29Z"/></g></g></svg>